<svg xmlns="http://www.w3.org/2000/svg" viewBox="0 0 800 600" width="800" height="600" role="img" aria-label="Ledgerline — Exchange preview">
  <defs>
    <linearGradient id="g" x1="0" y1="0" x2="0" y2="1">
      <stop offset="0%" stop-color="#04121a"/>
      <stop offset="100%" stop-color="#071e2b"/>
    </linearGradient>
  </defs>
  <rect width="800" height="600" fill="url(#g)"/>
  <rect x="0" y="0" width="800" height="56" fill="#071e2b"/>
  <rect x="32" y="24" width="86" height="10" rx="5" fill="#22d3ee" opacity="0.9"/>
  <rect x="560" y="24" width="48" height="10" rx="5" fill="rgba(255,255,255,0.14)"/>
  <rect x="624" y="24" width="48" height="10" rx="5" fill="rgba(255,255,255,0.14)"/>
  <rect x="692" y="18" width="76" height="22" rx="11" fill="#22d3ee" opacity="0.9"/>
  <rect x="64" y="126" width="440" height="30" rx="6" fill="#ecfeff" opacity="0.92"/>
  <rect x="64" y="170" width="336" height="30" rx="6" fill="#ecfeff" opacity="0.72"/>
  <rect x="64" y="228" width="392" height="12" rx="6" fill="#87aeb9" opacity="0.6"/>
  <rect x="64" y="250" width="300" height="12" rx="6" fill="#87aeb9" opacity="0.45"/>
  <rect x="64" y="296" width="132" height="38" rx="8" fill="#22d3ee"/>
  <rect x="212" y="296" width="120" height="38" rx="8" fill="none" stroke="rgba(255,255,255,0.14)" stroke-width="2"/>
  <rect x="64" y="392" width="208" height="150" rx="14" fill="rgba(34,211,238,0.06)" stroke="rgba(34,211,238,0.18)"/>
  <rect x="296" y="392" width="208" height="150" rx="14" fill="rgba(34,211,238,0.06)" stroke="rgba(34,211,238,0.18)"/>
  <rect x="528" y="392" width="208" height="150" rx="14" fill="rgba(34,211,238,0.06)" stroke="rgba(34,211,238,0.18)"/>
  <circle cx="96" cy="424" r="14" fill="#22d3ee" opacity="0.35"/>
  <circle cx="328" cy="424" r="14" fill="#22d3ee" opacity="0.35"/>
  <circle cx="560" cy="424" r="14" fill="#22d3ee" opacity="0.35"/>
  <rect x="82" y="456" width="130" height="10" rx="5" fill="#ecfeff" opacity="0.7"/>
  <rect x="314" y="456" width="130" height="10" rx="5" fill="#ecfeff" opacity="0.7"/>
  <rect x="546" y="456" width="130" height="10" rx="5" fill="#ecfeff" opacity="0.7"/>
  <rect x="82" y="480" width="168" height="8" rx="4" fill="#87aeb9" opacity="0.5"/>
  <rect x="314" y="480" width="168" height="8" rx="4" fill="#87aeb9" opacity="0.5"/>
  <rect x="546" y="480" width="168" height="8" rx="4" fill="#87aeb9" opacity="0.5"/>
  <rect x="520" y="96" width="216" height="216" rx="18" fill="rgba(34,211,238,0.06)" stroke="rgba(34,211,238,0.18)"/>
</svg>
